<svg width="64" height="64" viewBox="0 0 64 64" fill="none" xmlns="http://www.w3.org/2000/svg">
<rect width="64" height="64" rx="4" fill="#222222"/>
<path d="M37.3184 39.7891H27.2333C26.1861 39.7891 25.3324 40.6409 25.3324 41.69V43.0135C25.3324 44.0607 26.1843 44.9144 27.2333 44.9144H37.3184C38.3656 44.9144 39.2193 44.0625 39.2193 43.0135V41.69C39.2193 40.641 38.3674 39.7891 37.3184 39.7891V39.7891ZM32.7442 40.8187H34.5694V43.883H32.7442V40.8187ZM31.7128 43.883H29.9827V40.8187H31.7128V43.883ZM26.3641 43.0135V41.69C26.3641 41.2095 26.7548 40.8205 27.2336 40.8205H28.9514V43.8847H27.2336C26.7548 43.883 26.3641 43.4922 26.3641 43.0135ZM38.1879 43.0135C38.1879 43.494 37.7972 43.883 37.3185 43.883H35.6007V40.8187H37.3185C37.799 40.8187 38.1879 41.2095 38.1879 41.6882V43.0135Z" fill="white"/>
<path d="M46.196 33.3734H46.1432V30.6806C46.1432 26.8437 43.0209 23.7233 39.1859 23.7233H36.9472C36.6039 21.6465 34.909 20.0202 32.7952 19.7896V15.9915C33.9182 15.7327 34.7612 14.7295 34.7612 13.5292C34.7595 12.1352 33.6242 11 32.2285 11C30.8328 11 29.6976 12.1352 29.6976 13.5309C29.6976 14.7665 30.5899 15.7943 31.7621 16.0143V19.7914C29.65 20.0219 27.9569 21.6447 27.6119 23.7251H25.2728C21.436 23.7251 18.3156 26.8474 18.3156 30.6823V33.3752L18.2628 33.3734C15.9114 33.3734 14 35.2866 14 37.6362V39.2889C14 41.635 15.9132 43.5447 18.2628 43.5447H18.3156V44.5919C18.3156 48.4288 21.4362 51.551 25.2728 51.551H39.1842C43.0211 51.551 46.1414 48.4286 46.1414 44.5937V43.5465H46.1942C48.5403 43.5465 50.45 41.6368 50.45 39.2907V37.638C50.4518 35.2866 48.5421 33.3735 46.196 33.3735V33.3734ZM30.7288 13.5308C30.7288 12.7036 31.4012 12.0313 32.2284 12.0313C33.0556 12.0313 33.7279 12.7036 33.7279 13.5308C33.7279 14.358 33.0556 15.0303 32.2284 15.0303C31.4012 15.0303 30.7288 14.358 30.7288 13.5308ZM32.2777 20.7926C34.0553 20.7926 35.5425 22.0511 35.8998 23.7249L28.6556 23.7231C29.0129 22.0511 30.5001 20.7926 32.2778 20.7926L32.2777 20.7926ZM18.2627 42.5151C16.4798 42.5151 15.0295 41.0683 15.0295 39.2907V37.638C15.0295 35.8551 16.4798 34.4048 18.2627 34.4048H18.3155V42.5151H18.2627ZM44.5962 44.5937C44.5962 47.5769 42.1692 50.0059 39.184 50.0059L25.2727 50.0041C22.2894 50.0041 19.8604 47.5771 19.8604 44.5919V30.6824C19.8604 27.6991 22.2875 25.2701 25.2727 25.2701H39.184C42.1673 25.2701 44.5962 27.6972 44.5962 30.6824V44.5937ZM49.4205 39.2905C49.4205 41.0681 47.9738 42.5148 46.1961 42.5148H46.1433V34.4046H46.1961C47.9738 34.4046 49.4205 35.8549 49.4205 37.6378V39.2905Z" fill="white"/>
<path d="M29.8313 33.8893C29.8313 32.0061 28.2983 30.4731 26.4151 30.4731C24.5318 30.4731 22.9989 32.0061 22.9989 33.8893C22.9989 35.7726 24.5318 37.3056 26.4151 37.3056C28.3001 37.3073 29.8313 35.7743 29.8313 33.8893ZM23.9036 33.8893C23.9036 32.5042 25.03 31.376 26.4152 31.376C27.8003 31.376 28.9285 32.5042 28.9285 33.8893C28.9285 35.2745 27.8003 36.4027 26.4152 36.4027C25.03 36.4027 23.9036 35.2762 23.9036 33.8893V33.8893Z" fill="white"/>
<path d="M27.9389 33.8893C27.9389 33.0498 27.256 32.3652 26.4147 32.3652C25.5751 32.3652 24.8905 33.048 24.8905 33.8893C24.8905 34.7289 25.5734 35.4135 26.4147 35.4135C27.256 35.4135 27.9389 34.7289 27.9389 33.8893Z" fill="white"/>
<path d="M38.0416 32.3669C37.2021 32.3669 36.5174 33.0497 36.5174 33.8911C36.5174 34.7306 37.2003 35.4152 38.0416 35.4152C38.8812 35.4152 39.5658 34.7324 39.5658 33.8911C39.5658 33.0497 38.8812 32.3669 38.0416 32.3669Z" fill="white"/>
<path d="M26.4146 39.0849C23.551 39.0849 21.2209 36.7546 21.2209 33.8911C21.2209 31.0275 23.5512 28.6974 26.4146 28.6974C29.278 28.6974 31.6084 31.0277 31.6084 33.8911C31.6101 36.7547 29.2798 39.0849 26.4146 39.0849ZM26.4146 29.5963C24.0474 29.5963 22.1219 31.5218 22.1219 33.889C22.1219 36.2563 24.0474 38.1817 26.4146 38.1817C28.7819 38.1817 30.7073 36.2563 30.7073 33.889C30.7091 31.5218 28.7819 29.5963 26.4146 29.5963V29.5963Z" fill="white"/>
<path d="M41.4578 33.8893C41.4578 32.0061 39.9248 30.4731 38.0416 30.4731C36.1583 30.4731 34.6253 32.0061 34.6253 33.8893C34.6253 35.7726 36.1583 37.3056 38.0416 37.3056C39.9266 37.3073 41.4578 35.7743 41.4578 33.8893ZM35.5301 33.8893C35.5301 32.5042 36.6565 31.376 38.0416 31.376C39.4268 31.376 40.555 32.5042 40.555 33.8893C40.555 35.2745 39.4268 36.4027 38.0416 36.4027C36.6565 36.4027 35.5301 35.2762 35.5301 33.8893V33.8893Z" fill="white"/>
<path d="M38.0416 39.0849C35.178 39.0849 32.8478 36.7546 32.8478 33.8911C32.8478 31.0275 35.1781 28.6974 38.0416 28.6974C40.9052 28.6974 43.2353 31.0277 43.2353 33.8911C43.237 36.7547 40.9067 39.0849 38.0416 39.0849ZM38.0416 29.5963C35.6743 29.5963 33.7488 31.5218 33.7488 33.889C33.7488 36.2563 35.6743 38.1817 38.0416 38.1817C40.4088 38.1817 42.3343 36.2563 42.3343 33.889C42.336 31.5218 40.4088 29.5963 38.0416 29.5963Z" fill="white"/>
</svg>
